<svg width="24" height="25" viewBox="0 0 24 25" fill="none" xmlns="http://www.w3.org/2000/svg">
<path d="M4.09405 6.43645L6.37838 19.8082C6.48287 20.4204 6.8082 20.9767 7.29643 21.3781C7.78466 21.7795 8.40408 21.9999 9.04432 22H12.6638M19.9049 6.43645L17.6216 19.8082C17.5171 20.4204 17.1918 20.9767 16.7036 21.3781C16.2153 21.7795 15.5959 21.9999 14.9557 22H11.3362M2 6.43645H22M15.0022 6.43645V4.57155C15.0022 4.15475 14.8313 3.75502 14.5272 3.4603C14.2231 3.16557 13.8106 3 13.3805 3H10.6195C10.1894 3 9.77691 3.16557 9.4728 3.4603C9.16869 3.75502 8.99784 4.15475 8.99784 4.57155V6.43645H15.0022Z" stroke="#6E3667" stroke-width="1.32351" stroke-linecap="round" stroke-linejoin="round"/>
<path d="M10 11V17M14 11V17" stroke="#8EC63F" stroke-width="1.32351" stroke-linecap="round" stroke-linejoin="round"/>
</svg>
