<svg width="24" height="25" viewBox="0 0 24 25" fill="none" xmlns="http://www.w3.org/2000/svg">
<path d="M10 12.5H20M20 12.5L17 9.5M20 12.5L17 15.5" stroke="#8EC63F" stroke-width="1.5" stroke-linecap="round" stroke-linejoin="round"/>
<path d="M11.5 5.25C10.5151 5.25 9.53982 5.44399 8.62987 5.8209C7.71993 6.19781 6.89314 6.75026 6.1967 7.4467C5.50026 8.14314 4.94781 8.96993 4.5709 9.87987C4.19399 10.7898 4 11.7651 4 12.75C4 13.7349 4.19399 14.7102 4.5709 15.6201C4.94781 16.5301 5.50026 17.3569 6.1967 18.0533C6.89314 18.7497 7.71993 19.3022 8.62987 19.6791C9.53982 20.056 10.5151 20.25 11.5 20.25" stroke="#6E3667" stroke-width="1.5" stroke-linecap="round"/>
</svg>
