<svg width="24" height="25" viewBox="0 0 24 25" fill="none" xmlns="http://www.w3.org/2000/svg">
<path d="M10.874 22.012L8.844 20.807C8.328 20.501 8.071 20.348 7.784 20.34C7.476 20.33 7.214 20.477 6.657 20.807C6.033 21.177 4.793 22.197 3.991 21.711C3.5 21.413 3.5 20.657 3.5 19.146V8.5C3.5 5.672 3.5 4.257 4.379 3.379C5.257 2.5 6.672 2.5 9.5 2.5H14.5C17.328 2.5 18.743 2.5 19.621 3.379C20.5 4.257 20.5 5.672 20.5 8.5V19.146C20.5 20.657 20.5 21.413 20.01 21.711C19.207 22.197 17.967 21.177 17.343 20.807C16.828 20.501 16.57 20.348 16.285 20.34C15.975 20.33 15.713 20.477 15.157 20.807L13.127 22.012C12.579 22.337 12.305 22.5 12 22.5C11.695 22.5 11.421 22.337 10.874 22.012Z" stroke="#6E3667" stroke-width="1.5" stroke-linecap="round" stroke-linejoin="round"/>
<path d="M15 8.5L9 14.5M15 14.5H14.991M9.009 8.5H9" stroke="#8EC63F" stroke-width="1.5" stroke-linecap="round" stroke-linejoin="round"/>
</svg>
