<svg width="24" height="25" viewBox="0 0 24 25" fill="none" xmlns="http://www.w3.org/2000/svg">
<path d="M5 21.5V5.5C5 4.96957 5.21071 4.46086 5.58579 4.08579C5.96086 3.71071 6.46957 3.5 7 3.5H17C17.5304 3.5 18.0391 3.71071 18.4142 4.08579C18.7893 4.46086 19 4.96957 19 5.5V21.5L16 19.5L14 21.5L12 19.5L10 21.5L8 19.5L5 21.5Z" stroke="#6E3667" stroke-width="1.5" stroke-linecap="round" stroke-linejoin="round"/>
<path d="M15 7.5H9H10C10.7956 7.5 11.5587 7.81607 12.1213 8.37868C12.6839 8.94129 13 9.70435 13 10.5C13 11.2956 12.6839 12.0587 12.1213 12.6213C11.5587 13.1839 10.7956 13.5 10 13.5H9L12 16.5M9 10.5H15" stroke="#8EC63F" stroke-width="1.5" stroke-linecap="round" stroke-linejoin="round"/>
</svg>
