<svg width="24" height="25" viewBox="0 0 24 25" fill="none" xmlns="http://www.w3.org/2000/svg">
<path d="M3 10.5V19.5C3 20.0304 3.21071 20.5391 3.58579 20.9142C3.96086 21.2893 4.46957 21.5 5 21.5H19C19.5304 21.5 20.0391 21.2893 20.4142 20.9142C20.7893 20.5391 21 20.0304 21 19.5V10.5" stroke="#6E3667" stroke-width="1.5"/>
<path d="M15 20.5V15.25C15 14.7859 14.7893 14.3408 14.4142 14.0126C14.0391 13.6844 13.5304 13.5 13 13.5H11C10.4696 13.5 9.96086 13.6844 9.58579 14.0126C9.21071 14.3408 9 14.7859 9 15.25V20.5" stroke="#6E3667" stroke-width="1.5" stroke-miterlimit="16"/>
<path d="M21.818 9.864L20.124 3.935C20.0881 3.80965 20.0124 3.69939 19.9083 3.6209C19.8042 3.54241 19.6774 3.49997 19.547 3.5H15.5L15.975 9.204C15.9823 9.29568 16.0114 9.38429 16.0597 9.46254C16.1081 9.54078 16.1743 9.60641 16.253 9.654C16.643 9.887 17.405 10.317 18 10.5C19.016 10.813 20.5 10.7 21.346 10.596C21.4282 10.5854 21.5072 10.5569 21.5773 10.5126C21.6474 10.4683 21.707 10.4093 21.752 10.3396C21.7969 10.2699 21.8261 10.1912 21.8375 10.1091C21.8489 10.0269 21.8423 9.94331 21.818 9.864Z" stroke="#8EC63F" stroke-width="1.5"/>
<path d="M3.87556 3.935L2.18156 9.865C2.15765 9.94418 2.15126 10.0276 2.16283 10.1095C2.1744 10.1914 2.20366 10.2698 2.24857 10.3393C2.29348 10.4087 2.35296 10.4676 2.4229 10.5117C2.49284 10.5559 2.57155 10.5843 2.65356 10.595C3.49856 10.7 4.98356 10.812 5.99956 10.5C6.59456 10.317 7.35756 9.887 7.74656 9.655C7.82539 9.60731 7.89172 9.54153 7.94007 9.4631C7.98841 9.38467 8.01738 9.29585 8.02456 9.204L8.49956 3.5H4.45256C4.32219 3.49997 4.19534 3.54241 4.09124 3.6209C3.98713 3.69939 3.91142 3.80965 3.87556 3.935Z" stroke="#8EC63F" stroke-width="1.5"/>
<path d="M13.9997 10.5C14.5677 10.325 15.2877 9.926 15.6897 9.688C15.7832 9.63205 15.8591 9.55087 15.9086 9.45377C15.9582 9.35667 15.9793 9.24757 15.9697 9.139L15.4997 3.5H8.4997L8.0297 9.139C8.01987 9.24774 8.04094 9.35704 8.09047 9.45433C8.14 9.55163 8.21599 9.63297 8.3097 9.689C8.7117 9.926 9.4317 10.325 9.9997 10.5C11.4927 10.96 12.5067 10.96 13.9997 10.5Z" stroke="#8EC63F" stroke-width="1.5"/>
</svg>
