<svg width="24" height="25" viewBox="0 0 24 25" fill="none" xmlns="http://www.w3.org/2000/svg">
<g id="material-symbols-light:laundry-outline-rounded">
<g id="Layer_x0020_1">
<g id="_2241129102336">
<g id="Group">
<g id="Group_2">
<path id="Vector" fill-rule="evenodd" clip-rule="evenodd" d="M4.05253 8.74361L7.63178 6.76817V13.1345C7.4362 13.159 7.2455 13.1786 7.04991 13.1981C6.85921 13.2177 6.66852 13.2617 6.48271 13.3252V8.71916L4.42904 9.85846C4.20411 9.9807 3.96941 10.01 3.72493 9.94647C3.48044 9.8829 3.29463 9.7411 3.17239 9.51618L1.78372 7.10067C1.66148 6.87575 1.63214 6.64104 1.69571 6.39167C1.75927 6.14229 1.90107 5.95649 2.126 5.83424L6.92278 3.07157C7.03524 3.01289 7.14771 2.964 7.26506 2.92488C7.38241 2.88576 7.50465 2.87109 7.64156 2.87109C7.76381 2.87109 7.86649 2.90532 7.9545 2.97378C8.04252 3.04223 8.11097 3.13025 8.16476 3.2476C8.49237 4.11796 9.00579 4.8123 9.70501 5.33061C10.4042 5.84891 11.2404 6.10807 12.2134 6.10807C13.1865 6.10807 14.0226 5.84891 14.7267 5.33061C15.4259 4.8123 15.9443 4.11796 16.267 3.2476C16.3159 3.13025 16.3892 3.04223 16.4772 2.97378C16.5652 2.90532 16.6728 2.87598 16.7902 2.87598C16.9271 2.87598 17.0493 2.89554 17.1618 2.92977C17.2742 2.96889 17.3867 3.01289 17.4992 3.07646L22.296 5.83913C22.5209 5.96138 22.6627 6.14718 22.7214 6.39167C22.78 6.63615 22.7507 6.87575 22.6285 7.09578L21.2496 9.49662C21.1273 9.72154 20.9415 9.86823 20.697 9.93669C20.4525 10.01 20.2129 9.9807 19.9929 9.85846L17.9392 8.71916V16.7676L17.1716 17.4375C17.1227 17.4815 17.064 17.5157 16.9955 17.5499C16.9271 17.5842 16.8586 17.6086 16.7951 17.6331V6.75839L20.3743 8.73383L21.5185 6.72906L17.1373 4.18153C16.6777 5.11546 16.0078 5.85869 15.1277 6.41612C14.2475 6.96865 13.2745 7.24736 12.2134 7.24736C11.1475 7.24736 10.1793 6.96865 9.29917 6.41612C8.41902 5.86358 7.74914 5.12035 7.28951 4.18153L2.87901 6.72906L4.05253 8.73383V8.74361Z" fill="#6E3667"/>
<path id="Vector_2" fill-rule="evenodd" clip-rule="evenodd" d="M3.48981 18.4987C3.38223 18.3667 3.33823 18.2249 3.34801 18.0733C3.36268 17.9168 3.43602 17.7897 3.56315 17.6821L5.16697 16.3081C5.56303 15.9707 6.01289 15.7116 6.51652 15.5355C7.02016 15.3595 7.53358 15.2666 8.05677 15.2666C8.57997 15.2666 9.0885 15.3546 9.58236 15.5355C10.0762 15.7165 10.5212 15.9707 10.9172 16.3081L14.2373 19.1441C14.5258 19.3935 14.8583 19.5793 15.2397 19.6967C15.6211 19.8189 16.0025 19.8776 16.3839 19.8776C16.7702 19.8776 17.1516 19.8189 17.5183 19.7015C17.8899 19.5842 18.2175 19.3984 18.506 19.1441L20.1098 17.7457C20.2419 17.6381 20.3837 17.5892 20.5353 17.6039C20.6868 17.6137 20.8189 17.687 20.9264 17.819C21.034 17.951 21.078 18.0928 21.0682 18.2444C21.0536 18.396 20.9802 18.528 20.8531 18.6356L19.2493 20.0096C18.8532 20.347 18.4082 20.6012 17.9144 20.7675C17.4205 20.9386 16.912 21.0218 16.3888 21.0218C15.8656 21.0218 15.3522 20.9386 14.8485 20.7675C14.3449 20.5964 13.8951 20.347 13.499 20.0096L10.1789 17.1736C9.89041 16.9242 9.5628 16.7384 9.19607 16.621C8.82445 16.4988 8.44795 16.4401 8.06166 16.4401C7.68027 16.4401 7.29887 16.4988 6.91748 16.621C6.53608 16.7384 6.20358 16.9242 5.91509 17.1736L4.28194 18.5476C4.14991 18.6552 4.013 18.7041 3.8712 18.6992C3.7294 18.6943 3.60227 18.6258 3.4947 18.4987H3.48981Z" fill="#8EC63F"/>
</g>
</g>
</g>
</g>
</g>
</svg>
