<svg width="19" height="21" viewBox="0 0 19 21" fill="none" xmlns="http://www.w3.org/2000/svg">
<g id="date" clip-path="url(#clip0_1248_5666)">
<g id="Layer_x0020_1">
<g id="_2241132396816">
<g id="Vector">
<path fill-rule="evenodd" clip-rule="evenodd" d="M16.4656 9.71819C16.8621 9.98605 17.2157 10.2887 17.5237 10.6263C17.8344 10.9638 18.0996 11.3361 18.3246 11.7406C18.5496 12.145 18.713 12.5709 18.8202 13.0183C18.9246 13.4683 18.9863 13.9263 18.997 14.3951C18.997 15.1692 18.8496 15.8978 18.5523 16.5836C18.255 17.2666 17.8451 17.864 17.3255 18.3702C16.8032 18.8765 16.2005 19.2783 15.5147 19.5703C14.829 19.8622 14.0897 20.0122 13.2968 20.0203C12.6968 20.0203 12.1155 19.9319 11.5557 19.7578C10.9958 19.581 10.4815 19.3292 10.0128 18.997C9.54402 18.6649 9.12883 18.2684 8.76721 17.805C8.4056 17.3416 8.12434 16.8327 7.92612 16.2728H0V1.27241H2.534V0.0214844H3.801V1.27241H12.6673V0.0214844H13.9343V1.27241H16.4683V9.71819H16.4656ZM1.267 2.52066V5.01984H15.1986V2.52066H13.9316V3.77159H12.6646V2.52066H3.79832V3.77159H2.53132V2.52066H1.26432H1.267ZM7.62879 15.0192C7.61004 14.8183 7.59932 14.6094 7.59932 14.3951C7.59932 13.621 7.74665 12.8897 8.04398 12.2067C8.34131 11.5236 8.75114 10.9263 9.2708 10.42C9.79046 9.91373 10.3958 9.51193 11.0816 9.21996C11.7673 8.92799 12.5066 8.77798 13.2995 8.76995C13.9584 8.76995 14.5933 8.87709 15.1986 9.09139V6.26809H1.267V15.0166H7.62879V15.0192ZM13.2995 18.7693C13.9129 18.7693 14.4861 18.6568 15.0219 18.4265C15.5576 18.1988 16.0237 17.8854 16.4281 17.4889C16.8299 17.0925 17.146 16.6291 17.3791 16.1014C17.6094 15.5737 17.73 15.0058 17.7353 14.3924C17.7353 13.7871 17.6201 13.2192 17.3898 12.6942C17.1594 12.1665 16.8433 11.7031 16.4389 11.3066C16.0371 10.9102 15.5683 10.5968 15.0326 10.3691C14.4968 10.1414 13.9209 10.0236 13.2995 10.0182C12.6861 10.0182 12.1128 10.1307 11.5771 10.3611C11.0414 10.5887 10.5753 10.9022 10.1708 11.2986C9.76903 11.695 9.45295 12.1584 9.22258 12.6861C8.99222 13.2138 8.87168 13.7817 8.86632 14.3951C8.86632 15.0005 8.98151 15.5657 9.21187 16.0934C9.44223 16.6211 9.75831 17.0845 10.1601 17.4809C10.5619 17.8773 11.0307 18.1908 11.5664 18.4184C12.1021 18.6461 12.678 18.764 13.2995 18.7693Z" fill="#6E3667"/>
<path d="M15.8307 13.7682H13.9316V11.269H12.6646V15.0191H15.8307V13.7682Z" fill="#8EC63F"/>
</g>
</g>
</g>
</g>
<defs>
<clipPath id="clip0_1248_5666">
<rect width="18.9996" height="19.9994" fill="white" transform="translate(0 0.0214844)"/>
</clipPath>
</defs>
</svg>
