<svg width="19" height="21" viewBox="0 0 19 21" fill="none" xmlns="http://www.w3.org/2000/svg">
<g clip-path="url(#clip0_1259_12296)">
<path fill-rule="evenodd" clip-rule="evenodd" d="M16.4656 10.1967C16.8621 10.4646 17.2157 10.7673 17.5237 11.1048C17.8344 11.4423 18.0996 11.8146 18.3246 12.2191C18.5496 12.6236 18.713 13.0495 18.8202 13.4968C18.9246 13.9468 18.9863 14.4049 18.997 14.8736C18.997 15.6478 18.8496 16.3763 18.5523 17.0621C18.255 17.7451 17.8451 18.3425 17.3255 18.8487C16.8032 19.355 16.2005 19.7568 15.5147 20.0488C14.829 20.3407 14.0897 20.4907 13.2968 20.4988C12.6968 20.4988 12.1155 20.4104 11.5557 20.2363C10.9958 20.0595 10.4815 19.8077 10.0128 19.4755C9.54402 19.1434 9.12883 18.7469 8.76721 18.2835C8.4056 17.8201 8.12434 17.3112 7.92612 16.7514H0V1.75093H2.534V0.5H3.801V1.75093H12.6673V0.5H13.9343V1.75093H16.4683V10.1967H16.4656ZM1.267 2.99918V5.49836H15.1986V2.99918H13.9316V4.25011H12.6646V2.99918H3.79832V4.25011H2.53132V2.99918H1.26432H1.267ZM7.62879 15.4977C7.61004 15.2969 7.59932 15.0879 7.59932 14.8736C7.59932 14.0995 7.74665 13.3682 8.04398 12.6852C8.34131 12.0021 8.75114 11.4048 9.2708 10.8985C9.79046 10.3922 10.3958 9.99045 11.0816 9.69848C11.7673 9.4065 12.5066 9.2565 13.2995 9.24846C13.9584 9.24846 14.5933 9.35561 15.1986 9.5699V6.74661H1.267V15.4951H7.62879V15.4977ZM13.2995 19.2479C13.9129 19.2479 14.4861 19.1354 15.0219 18.905C15.5576 18.6773 16.0237 18.3639 16.4281 17.9675C16.8299 17.571 17.146 17.1076 17.3791 16.5799C17.6094 16.0522 17.73 15.4844 17.7353 14.8709C17.7353 14.2656 17.6201 13.6977 17.3898 13.1727C17.1594 12.645 16.8433 12.1816 16.4389 11.7851C16.0371 11.3887 15.5683 11.0753 15.0326 10.8476C14.4968 10.6199 13.9209 10.5021 13.2995 10.4967C12.6861 10.4967 12.1128 10.6092 11.5771 10.8396C11.0414 11.0673 10.5753 11.3807 10.1708 11.7771C9.76903 12.1735 9.45295 12.637 9.22258 13.1646C8.99222 13.6923 8.87168 14.2602 8.86632 14.8736C8.86632 15.479 8.98151 16.0442 9.21187 16.5719C9.44223 17.0996 9.75831 17.563 10.1601 17.9594C10.5619 18.3559 11.0307 18.6693 11.5664 18.897C12.1021 19.1246 12.678 19.2425 13.2995 19.2479Z" fill="#6E3667"/>
<path d="M15.8307 14.2467H13.9316V11.7476H12.6646V15.4977H15.8307V14.2467Z" fill="#8EC63F"/>
</g>
<defs>
<clipPath id="clip0_1259_12296">
<rect width="18.9996" height="19.9994" fill="white" transform="translate(0 0.5)"/>
</clipPath>
</defs>
</svg>
