<svg width="24" height="25" viewBox="0 0 24 25" fill="none" xmlns="http://www.w3.org/2000/svg">
<path d="M5.856 7.33988C5.74176 7.27827 5.61348 7.24736 5.48371 7.25018C5.35395 7.253 5.22713 7.28944 5.11567 7.35596C5.00421 7.42247 4.91192 7.51677 4.84782 7.62964C4.78373 7.74251 4.75002 7.87008 4.75 7.99988V17.4999C4.75 17.6988 4.82902 17.8896 4.96967 18.0302C5.11032 18.1709 5.30109 18.2499 5.5 18.2499C5.69891 18.2499 5.88968 18.1709 6.03033 18.0302C6.17098 17.8896 6.25 17.6988 6.25 17.4999V9.25588L11.644 12.1599C11.866 12.2799 12.134 12.2799 12.356 12.1599L17.75 9.25588V17.4999C17.75 17.6988 17.829 17.8896 17.9697 18.0302C18.1103 18.1709 18.3011 18.2499 18.5 18.2499C18.6989 18.2499 18.8897 18.1709 19.0303 18.0302C19.171 17.8896 19.25 17.6988 19.25 17.4999V7.99988C19.25 7.87008 19.2163 7.74251 19.1522 7.62964C19.0881 7.51677 18.9958 7.42247 18.8843 7.35596C18.7729 7.28944 18.6461 7.253 18.5163 7.25018C18.3865 7.24736 18.2582 7.27827 18.144 7.33988L12 10.6479L5.856 7.33988Z" fill="#8EC63F"/>
<path fill-rule="evenodd" clip-rule="evenodd" d="M17.3098 4.22237C13.7768 3.90635 10.2227 3.90635 6.68978 4.22237L5.17178 4.35737C4.38107 4.42797 3.63724 4.76305 3.06042 5.30848C2.4836 5.8539 2.10748 6.57784 1.99278 7.36337C1.49459 10.7699 1.49459 14.2308 1.99278 17.6374C2.10772 18.4229 2.48409 19.1467 3.06109 19.6919C3.63809 20.2372 4.38204 20.572 5.17278 20.6424L6.68878 20.7784C10.2228 21.0944 13.7768 21.0944 17.3108 20.7784L18.8278 20.6424C19.6183 20.5718 20.3621 20.2369 20.9389 19.6916C21.5157 19.1464 21.8919 18.4227 22.0068 17.6374C22.505 14.2308 22.505 10.7699 22.0068 7.36337C21.892 6.57769 21.5158 5.85363 20.9387 5.30819C20.3617 4.76274 19.6177 4.42776 18.8268 4.35737L17.3098 4.22237ZM6.82378 5.71637C10.2682 5.40769 13.7333 5.40769 17.1778 5.71637L18.6948 5.85237C19.1495 5.89276 19.5774 6.08527 19.9093 6.39882C20.2412 6.71236 20.4576 7.12862 20.5238 7.58037C21.0009 10.843 21.0009 14.1577 20.5238 17.4204C20.4576 17.8721 20.2412 18.2884 19.9093 18.6019C19.5774 18.9155 19.1495 19.108 18.6948 19.1484L17.1778 19.2844C13.7338 19.5924 10.2678 19.5924 6.82378 19.2844L5.30678 19.1484C4.85201 19.108 4.42413 18.9155 4.09227 18.6019C3.7604 18.2884 3.54391 17.8721 3.47778 17.4204C3.00063 14.1577 3.00063 10.843 3.47778 7.58037C3.54391 7.12862 3.7604 6.71236 4.09227 6.39882C4.42413 6.08527 4.85201 5.89276 5.30678 5.85237L6.82378 5.71637Z" fill="#6E3667"/>
</svg>
