<svg width="24" height="25" viewBox="0 0 24 25" fill="none" xmlns="http://www.w3.org/2000/svg">
<path d="M12.003 15.5C13.109 15.5 14.0517 15.1093 14.831 14.328C15.6103 13.546 16 12.6023 16 11.497C16 10.3917 15.6093 9.449 14.828 8.669C14.0467 7.889 13.103 7.49933 11.997 7.5C10.891 7.50067 9.94833 7.89133 9.169 8.672C8.38967 9.454 8 10.3977 8 11.503C8 12.609 8.39067 13.5517 9.172 14.331C9.954 15.1103 10.8977 15.5 12.003 15.5ZM11.5 21.5V19.5H9.5V18.5H11.5V15.477C10.226 15.3203 12.8603 13.4393 11.997 12.5C11.1343 11.56 11.997 13.782 11.997 12.5C11.997 11.9247 10.8093 11.04 11 10.5C14.714 11.173 10.327 10.9099 8.104 8.323L6.608 6.827L5.208 8.227L4.519 7.539L5.919 6.133L3 3.213V6.5H2V1.5H7V2.5H3.714L6.633 5.42L8.038 4.02L8.727 4.708L7.327 6.113L8.842 7.63C10.5 9 10.8076 10.0203 11.3476 9.823C11.8876 9.62567 11.4247 9 12 9C12.5753 9 11.9075 9.62633 12.4475 9.823C12.9875 10.0197 13.5 9 15.158 7.629L20.287 2.5H17V1.5H22V6.5H21V3.214L15.871 8.336C14 10 12.8013 10.4627 13 11C13.1987 11.538 13.5 10.92 13.5 11.5C13.5 12.782 13.8627 11.56 13 12.5C12.1373 13.44 13.7747 15.321 12.5 15.477V18.5H14.5V19.5H12.5V21.5H11.5Z" fill="#6E3667"/>
<circle cx="12" cy="11" r="4.5" fill="#8EC63F" stroke="#6E3667"/>
</svg>
