<svg width="19" height="20" viewBox="0 0 19 20" fill="none" xmlns="http://www.w3.org/2000/svg">
<rect x="0.5" y="1" width="18" height="18" rx="1.5" stroke="#6E3667"/>
<path d="M14.8438 12.9688C14.8438 12.8113 14.7968 12.6603 14.7133 12.5489C14.6298 12.4376 14.5165 12.375 14.3984 12.375H11.7266C11.6085 12.375 11.4952 12.4376 11.4117 12.5489C11.3282 12.6603 11.2812 12.8113 11.2812 12.9688C11.2812 13.1262 11.3282 13.2772 11.4117 13.3886C11.4952 13.4999 11.6085 13.5625 11.7266 13.5625H14.3984C14.5165 13.5625 14.6298 13.4999 14.7133 13.3886C14.7968 13.2772 14.8438 13.1262 14.8438 12.9688ZM14.8438 9.40625C14.8438 9.24878 14.7968 9.09776 14.7133 8.98641C14.6298 8.87506 14.5165 8.8125 14.3984 8.8125H8.16406C8.04596 8.8125 7.93269 8.87506 7.84918 8.98641C7.76567 9.09776 7.71875 9.24878 7.71875 9.40625C7.71875 9.56372 7.76567 9.71475 7.84918 9.82609C7.93269 9.93744 8.04596 10 8.16406 10H14.3984C14.5165 10 14.6298 9.93744 14.7133 9.82609C14.7968 9.71475 14.8438 9.56372 14.8438 9.40625ZM14.8438 5.84375C14.8438 5.68628 14.7968 5.53526 14.7133 5.42391C14.6298 5.31256 14.5165 5.25 14.3984 5.25H4.60156C4.48346 5.25 4.37019 5.31256 4.28668 5.42391C4.20317 5.53526 4.15625 5.68628 4.15625 5.84375C4.15625 6.00122 4.20317 6.15224 4.28668 6.26359C4.37019 6.37494 4.48346 6.4375 4.60156 6.4375H14.3984C14.5165 6.4375 14.6298 6.37494 14.7133 6.26359C14.7968 6.15224 14.8438 6.00122 14.8438 5.84375Z" fill="#8EC63F"/>
</svg>
