<svg width="24" height="25" viewBox="0 0 24 25" fill="none" xmlns="http://www.w3.org/2000/svg">
<path d="M12 22.5C10.6167 22.5 9.31667 22.2377 8.1 21.713C6.88334 21.1883 5.825 20.4757 4.925 19.575C4.025 18.6743 3.31267 17.616 2.788 16.4C2.26333 15.184 2.00067 13.884 2 12.5C1.99933 11.116 2.262 9.81601 2.788 8.60001C3.314 7.38401 4.02633 6.32567 4.925 5.42501C5.82367 4.52434 6.882 3.81201 8.1 3.28801C9.318 2.76401 10.618 2.50134 12 2.50001C13.382 2.49867 14.682 2.76134 15.9 3.28801C17.118 3.81467 18.1763 4.52701 19.075 5.42501C19.9737 6.32301 20.6863 7.38134 21.213 8.60001C21.7397 9.81867 22.002 11.1187 22 12.5C21.998 13.8813 21.7353 15.1813 21.212 16.4C20.6887 17.6187 19.9763 18.677 19.075 19.575C18.1737 20.473 17.1153 21.1857 15.9 21.713C14.6847 22.2403 13.3847 22.5027 12 22.5ZM12 20.5C14.2333 20.5 16.125 19.725 17.675 18.175C19.225 16.625 20 14.7333 20 12.5C20 10.2667 19.225 8.375 17.675 6.82501C16.125 5.27501 14.2333 4.50001 12 4.50001C9.76667 4.50001 7.875 5.27501 6.325 6.82501C4.775 8.375 4 10.2667 4 12.5C4 14.7333 4.775 16.625 6.325 18.175C7.875 19.725 9.76667 20.5 12 20.5Z" fill="#6E3667"/>
<path d="M12.8378 18.137C12.5958 18.379 12.2998 18.5 11.9498 18.5C11.6025 18.5 11.3068 18.3793 11.0628 18.138C10.8188 17.8967 10.6978 17.6007 10.6998 17.25C10.7018 16.8993 10.8228 16.6037 11.0628 16.363C11.3028 16.1223 11.5985 16.0013 11.9498 16C12.3011 15.9987 12.5971 16.1193 12.8378 16.362C13.0785 16.6047 13.1991 16.9007 13.1998 17.25C13.2005 17.5993 13.0798 17.895 12.8378 18.137Z" fill="#8EC63F"/>
<path d="M12.8998 14.65H11.0498C11.0498 13.7667 11.1331 13.1583 11.2998 12.825C11.4665 12.4917 11.9165 12 12.6498 11.35C12.9498 11.1007 13.1998 10.83 13.3998 10.538C13.5998 10.246 13.6998 9.93333 13.6998 9.6C13.6998 9.25067 13.5665 8.93 13.2998 8.638C13.0331 8.346 12.6331 8.2 12.0998 8.2C11.5005 8.2 11.0548 8.375 10.7628 8.725C10.4708 9.075 10.2831 9.4 10.1998 9.7L8.5498 9.05C8.7838 8.35 9.19647 7.75 9.7878 7.25C10.3791 6.75 11.1498 6.5 12.0998 6.5C13.0331 6.5 13.8415 6.75 14.5248 7.25C15.2081 7.75 15.5498 8.46667 15.5498 9.4C15.5498 9.94933 15.4248 10.42 15.1748 10.812C14.9248 11.204 14.5831 11.6167 14.1498 12.05C13.5671 12.6 13.2131 13.0333 13.0878 13.35C12.9625 13.6667 12.8998 14.1 12.8998 14.65Z" fill="#8EC63F"/>
</svg>
