<svg width="20" height="25" viewBox="0 0 20 25" fill="none" xmlns="http://www.w3.org/2000/svg">
<g id="location">
<g id="Layer_x0020_1">
<g id="_2241129145248">
<g id="Group">
<path id="Vector" fill-rule="evenodd" clip-rule="evenodd" d="M9.99971 13.7992C10.5961 13.7992 11.1665 13.5607 11.5918 13.1406C12.0118 12.7206 12.2504 12.1449 12.2504 11.5485C12.2504 10.9522 12.0118 10.3817 11.5918 9.95646C11.1717 9.5364 10.5961 9.29785 9.99971 9.29785C9.40333 9.29785 8.83288 9.5364 8.40763 9.95646C7.98758 10.3765 7.74902 10.9522 7.74902 11.5485C7.74902 12.1449 7.98758 12.7154 8.40763 13.1406C8.82769 13.5607 9.40333 13.7992 9.99971 13.7992Z" fill="#8EC63F"/>
<path id="Vector_2" fill-rule="evenodd" clip-rule="evenodd" d="M16.363 4.735C19.879 8.25105 19.879 13.9452 16.363 17.4612L11.5038 22.3204C11.1045 22.7198 10.5651 22.9427 10.005 22.9427C9.43978 22.9427 8.90044 22.7198 8.50631 22.3204L3.66785 17.482L3.64192 17.4561C0.12587 13.94 0.12587 8.24586 3.64192 4.72981C7.15279 1.21376 12.8521 1.21376 16.363 4.72981V4.735ZM4.59094 5.68921C3.15445 7.12571 2.35063 9.07042 2.35063 11.0981C2.35063 13.1258 3.15445 15.0705 4.59094 16.507L4.61169 16.5278L9.45015 21.3662C9.59535 21.5114 9.79242 21.5944 9.99467 21.5944C10.1969 21.5944 10.394 21.5114 10.5392 21.3662L15.3984 16.5018C16.8141 15.0653 17.6076 13.1258 17.5972 11.1033C17.592 9.08598 16.783 7.15163 15.3569 5.72551C13.9308 4.29938 11.9964 3.49038 9.97911 3.48519C7.96179 3.48001 6.02226 4.26827 4.58057 5.68402L4.59094 5.68921Z" fill="#6E3667"/>
</g>
</g>
</g>
</g>
</svg>
