<svg width="17" height="18" viewBox="0 0 17 18" fill="none" xmlns="http://www.w3.org/2000/svg">
<g id="ph_note-pencil 1" clip-path="url(#clip0_1248_5690)">
<g id="Layer_x0020_1">
<g id="_2241129808128">
<path id="Vector" fill-rule="evenodd" clip-rule="evenodd" d="M16.3256 8.86839V15.6725C16.3256 16.0403 16.1826 16.3876 15.917 16.6328C15.6718 16.878 15.3244 17.0415 14.9567 17.0415H1.34848C0.980694 17.0415 0.633338 16.8984 0.388146 16.6328C0.142954 16.3876 -0.0205078 16.0403 -0.0205078 15.6725V2.0643C-0.0205078 1.69651 0.122521 1.34916 0.388146 1.10397C0.633338 0.858774 0.980694 0.695312 1.34848 0.695312H8.15257C8.33646 0.695312 8.49992 0.777043 8.64295 0.899639C8.76555 1.02224 8.84728 1.20613 8.84728 1.39002C8.84728 1.57392 8.76555 1.73738 8.64295 1.88041C8.52036 2.00301 8.33646 2.08474 8.15257 2.08474H1.34848V15.6929H14.9567V8.88882C14.9567 8.70493 15.0384 8.54147 15.161 8.39844C15.2836 8.27584 15.4675 8.19411 15.6514 8.19411C15.8353 8.19411 15.9987 8.27584 16.1418 8.39844C16.2643 8.52103 16.3461 8.70493 16.3461 8.88882L16.3256 8.86839Z" fill="#6E3667"/>
<path id="Vector_2" fill-rule="evenodd" clip-rule="evenodd" d="M16.7955 2.94336L14.078 0.225811C14.0167 0.164513 13.9349 0.103215 13.8532 0.0827824C13.7715 0.0419171 13.6898 0.0214844 13.5876 0.0214844C13.5059 0.0214844 13.4037 0.0419171 13.322 0.0827824C13.2402 0.123648 13.1585 0.164513 13.0972 0.225811L4.94456 8.37846C4.88326 8.43975 4.82197 8.52148 4.80153 8.60321C4.76067 8.68495 4.74023 8.76668 4.74023 8.86884V11.5864C4.74023 11.7703 4.82197 11.9337 4.94456 12.0768C5.06716 12.1994 5.25105 12.2811 5.43495 12.2811H8.15249C8.23422 12.2811 8.33639 12.2607 8.41812 12.2198C8.49985 12.1789 8.58158 12.1381 8.64288 12.0768L16.7955 3.92413C16.8568 3.86283 16.9181 3.7811 16.9386 3.69937C16.9794 3.61764 16.9998 3.53591 16.9998 3.43374C16.9998 3.35201 16.9794 3.24985 16.9386 3.16812C16.8977 3.08639 16.8568 3.00466 16.7955 2.94336Z" fill="#8EC63F"/>
<path id="Vector_3" fill-rule="evenodd" clip-rule="evenodd" d="M14.2826 4.49639L12.5254 2.73918L13.6083 1.65625L15.3655 3.41346L14.2826 4.49639Z" fill="white"/>
<path id="Vector_4" fill-rule="evenodd" clip-rule="evenodd" d="M7.88709 10.912H6.12988V9.15475L11.565 3.69922L13.3222 5.45643L7.88709 10.912Z" fill="white"/>
</g>
</g>
</g>
<defs>
<clipPath id="clip0_1248_5690">
<rect width="17" height="17" fill="white" transform="translate(0 0.0214844)"/>
</clipPath>
</defs>
</svg>
