<svg width="24" height="25" viewBox="0 0 24 25" fill="none" xmlns="http://www.w3.org/2000/svg">
<path d="M12 12.5C14.7614 12.5 17 10.2614 17 7.5C17 4.73858 14.7614 2.5 12 2.5C9.23858 2.5 7 4.73858 7 7.5C7 10.2614 9.23858 12.5 12 12.5Z" stroke="#6E3667" stroke-width="1.5"/>
<path d="M17.0001 22.5H5.26606C4.98244 22.5001 4.70206 22.4398 4.44351 22.3232C4.18496 22.2066 3.95416 22.0364 3.76644 21.8238C3.57871 21.6112 3.43835 21.3611 3.35467 21.0901C3.27098 20.8191 3.24589 20.5334 3.28106 20.252L3.67106 17.128C3.76176 16.4022 4.11448 15.7346 4.66289 15.2506C5.21131 14.7667 5.91764 14.4997 6.64906 14.5H7.00006" stroke="#6E3667" stroke-width="1.5" stroke-linecap="round" stroke-linejoin="round"/>
<path d="M19.4585 12.5937C19.4077 12.5475 19.3441 12.5167 19.2755 12.5051C19.2068 12.4935 19.1362 12.5017 19.0723 12.5286C19.0084 12.5554 18.9539 12.5999 18.9157 12.6564C18.8775 12.7129 18.8571 12.779 18.8571 12.8466V14.3635C18.7548 14.3658 18.6357 14.3719 18.5028 14.3835C18.0643 14.4229 17.4697 14.5293 16.8526 14.8007C15.5948 15.3538 14.3023 16.5677 14.0023 19.1143C13.9941 19.184 14.0079 19.2545 14.042 19.3164C14.076 19.3784 14.1285 19.4288 14.1927 19.4611C14.2569 19.4934 14.3297 19.506 14.4015 19.4973C14.4732 19.4886 14.5406 19.459 14.5946 19.4123C15.8331 18.3439 16.9937 17.884 17.8334 17.6883C18.1599 17.6103 18.4935 17.5642 18.8294 17.5505L18.8571 17.5497V19.0841C18.8571 19.1517 18.8775 19.2178 18.9157 19.2743C18.9539 19.3308 19.0084 19.3752 19.0723 19.4021C19.1362 19.429 19.2068 19.4371 19.2755 19.4255C19.3441 19.414 19.4077 19.3832 19.4585 19.3369L22.8871 16.2182C22.9227 16.1858 22.9511 16.1466 22.9706 16.1031C22.99 16.0596 23 16.0127 23 15.9653C23 15.9179 22.99 15.8711 22.9706 15.8276C22.9511 15.7841 22.9227 15.7449 22.8871 15.7125L19.4585 12.5937Z" fill="#8EC63F"/>
</svg>
