<svg width="24" height="25" viewBox="0 0 24 25" fill="none" xmlns="http://www.w3.org/2000/svg">
<path d="M6 12.5L12 6.5L18 12.5L12 18.5L6 12.5Z" fill="#8EC63F"/>
<path d="M12 3.5C13.78 3.5 15.5201 4.02784 17.0001 5.01677C18.4802 6.00571 19.6337 7.41131 20.3149 9.05585C20.9961 10.7004 21.1743 12.51 20.8271 14.2558C20.4798 16.0016 19.6226 17.6053 18.364 18.864C17.1053 20.1226 15.5016 20.9798 13.7558 21.3271C12.01 21.6743 10.2004 21.4961 8.55585 20.8149C6.91132 20.1337 5.50571 18.9802 4.51678 17.5001C3.52785 16.0201 3 14.28 3 12.5C3.00278 10.1139 3.95189 7.82633 5.63911 6.13911C7.32634 4.45188 9.61391 3.50278 12 3.5ZM12 2C9.9233 2 7.89323 2.61581 6.16652 3.76957C4.4398 4.92332 3.09399 6.5632 2.29927 8.48182C1.50455 10.4004 1.29661 12.5116 1.70176 14.5484C2.1069 16.5852 3.10693 18.4562 4.57538 19.9246C6.04383 21.3931 7.91476 22.3931 9.95156 22.7982C11.9884 23.2034 14.0996 22.9955 16.0182 22.2007C17.9368 21.406 19.5767 20.0602 20.7304 18.3335C21.8842 16.6068 22.5 14.5767 22.5 12.5C22.5 9.71523 21.3938 7.04451 19.4246 5.07538C17.4555 3.10625 14.7848 2 12 2Z" fill="#6E3667"/>
</svg>
