<svg width="44" height="45" viewBox="0 0 44 45" fill="none" xmlns="http://www.w3.org/2000/svg">
<path d="M37.5 26C37.5 32.9135 37.5 36.3712 35.3513 38.518C33.2027 40.6648 29.7468 40.6667 22.8333 40.6667H19.1667C12.2532 40.6667 8.7955 40.6667 6.64867 38.518C4.50183 36.3693 4.5 32.9135 4.5 26V18.6667C4.5 11.7532 4.5 8.2955 6.64867 6.14867C8.79733 4.00183 12.2532 4 19.1667 4H22.8333C29.7468 4 33.2045 4 35.3513 6.14867C37.4982 8.29733 37.5 11.7532 37.5 18.6667" stroke="#6E3667" stroke-width="1.5" stroke-linecap="round"/>
<path d="M30.1663 25.9997C30.1663 28.4308 29.2006 30.7624 27.4815 32.4815C25.7624 34.2006 23.4308 35.1663 20.9997 35.1663C18.5685 35.1663 16.2369 34.2006 14.5179 32.4815C12.7988 30.7624 11.833 28.4308 11.833 25.9997C11.833 23.5685 12.7988 21.2369 14.5179 19.5179C16.2369 17.7988 18.5685 16.833 20.9997 16.833C23.4308 16.833 25.7624 17.7988 27.4815 19.5179C29.2006 21.2369 30.1663 23.5685 30.1663 25.9997Z" stroke="#6E3667" stroke-width="1.5"/>
<path d="M28.3337 11.333H21.0004M15.5004 11.333H13.667M12.2627 26.6633C13.8302 27.448 15.6232 28.7882 18.661 29.3345C22.9914 30.1155 22.5587 26.3132 26.889 27.0923C28.209 27.3307 29.1 27.734 29.7307 28.1648" stroke="#8EC63F" stroke-width="1.5" stroke-linecap="round"/>
</svg>
