<svg width="24" height="25" viewBox="0 0 24 25" fill="none" xmlns="http://www.w3.org/2000/svg">
<path d="M20 12.5V6.249C20.0001 6.17006 19.9845 6.09189 19.9543 6.01896C19.9241 5.94603 19.8798 5.87978 19.824 5.824L16.676 2.676C16.5636 2.56345 16.4111 2.50014 16.252 2.5H4.6C4.44087 2.5 4.28826 2.56321 4.17574 2.67574C4.06321 2.78826 4 2.94087 4 3.1V21.9C4 22.0591 4.06321 22.2117 4.17574 22.3243C4.28826 22.4368 4.44087 22.5 4.6 22.5H13M8 10.5H16M8 6.5H12M8 14.5H11" stroke="#6E3667" stroke-width="1.5" stroke-linecap="round" stroke-linejoin="round"/>
<path d="M16 2.5V5.9C16 6.05913 16.0632 6.21174 16.1757 6.32426C16.2883 6.43679 16.4409 6.5 16.6 6.5H20" stroke="#6E3667" stroke-width="1.5" stroke-linecap="round" stroke-linejoin="round"/>
<path d="M20.5421 15.7105L17.9861 15.0615C17.6631 14.9795 17.3251 14.9795 17.0021 15.0615L14.4461 15.7105C14.3168 15.7432 14.2025 15.8188 14.1217 15.9248C14.0409 16.0309 13.9984 16.1612 14.0011 16.2945C14.1731 22.0525 17.4941 22.9365 17.4941 22.9365C17.4941 22.9365 20.8151 22.0525 20.9871 16.2945C20.9951 16.0205 20.8081 15.7785 20.5421 15.7105Z" stroke="#8EC63F" stroke-width="1.5" stroke-linecap="round" stroke-linejoin="round"/>
</svg>
