<svg width="22" height="17" viewBox="0 0 22 17" fill="none" xmlns="http://www.w3.org/2000/svg">
<g id="code" clip-path="url(#clip0_1248_5679)">
<g id="Layer_x0020_1">
<g id="_2241133491200">
<path id="Vector" fill-rule="evenodd" clip-rule="evenodd" d="M2.82448 4.20141C3.98729 2.51865 4.57066 1.67766 5.40382 1.22428C6.23698 0.771678 7.20639 0.772461 9.1452 0.772461H13.8364C16.6115 0.772461 17.9983 0.772461 18.9943 1.49443C19.4266 1.80764 19.7962 2.20935 20.0843 2.67761C20.7499 3.75742 20.7499 5.26243 20.7499 8.27167C20.7499 11.2817 20.7499 12.7851 20.0843 13.8665C19.7962 14.3348 19.4266 14.7365 18.9943 15.0497C17.9983 15.7717 16.6115 15.7717 13.8364 15.7717H9.14677C7.20717 15.7717 6.23776 15.7717 5.4046 15.3183C4.57066 14.8665 3.98808 14.0255 2.82526 12.3419L2.67726 12.1282C1.39307 10.2716 0.750977 9.34209 0.750977 8.27088C0.750977 7.20046 1.39307 6.27099 2.67726 4.4144L2.82526 4.20062L2.82448 4.20141Z" stroke="#6E3667" stroke-width="1.50031" stroke-miterlimit="2.61313" stroke-linecap="round" stroke-linejoin="round"/>
<path id="Vector_2" d="M7.75 8.27148H7.7594M11.7498 8.27148H11.7592M15.7496 8.27148H15.759" stroke="#8EC63F" stroke-width="2" stroke-miterlimit="2.61313" stroke-linecap="round" stroke-linejoin="round"/>
</g>
</g>
</g>
<defs>
<clipPath id="clip0_1248_5679">
<rect width="21.4999" height="16.5003" fill="white" transform="translate(0 0.0214844)"/>
</clipPath>
</defs>
</svg>
