<svg width="25" height="26" viewBox="0 0 25 26" fill="none" xmlns="http://www.w3.org/2000/svg">
<g clip-path="url(#clip0_1248_5770)">
<path d="M25.3945 15.9375H8.20703V6.69567C8.20703 5.75917 9.31849 5 10.6896 5H22.912C24.2831 5 25.3945 5.75917 25.3945 6.69567V15.9375H25.3945Z" fill="#D8FFA2"/>
<path d="M4.65254 6.88281H7.64497C8.25376 6.88281 8.74732 7.4291 8.74732 8.10298V15.6206H0.727539V11.9194C0.727539 11.4866 0.857617 11.0661 1.09731 10.7241L3.2605 7.6376C3.59419 7.16143 4.10806 6.88281 4.65254 6.88281Z" fill="url(#paint0_linear_1248_5770)"/>
<path d="M1.15015 17.7006H24.7239C25.083 17.7006 25.374 17.4095 25.374 17.0504V15.9479C25.374 15.9048 25.3656 15.8622 25.3491 15.8224C25.3326 15.7826 25.3085 15.7465 25.2781 15.7161C25.2476 15.6856 25.2115 15.6615 25.1717 15.645C25.132 15.6286 25.0893 15.6201 25.0463 15.6201H0.732227C0.670645 15.6201 0.611584 15.6446 0.568035 15.6881C0.524485 15.7317 0.500013 15.7907 0.5 15.8523V17.0504C0.5 17.4095 0.791113 17.7006 1.15015 17.7006Z" fill="#2B3B47"/>
<path d="M2.23713 11.001L4.13396 8.29619C4.17815 8.23315 4.24612 8.19629 4.31809 8.19629H6.56037C6.68923 8.19629 6.79367 8.31226 6.79367 8.45527V11.1601C6.79367 11.3031 6.68923 11.419 6.56037 11.419H2.42126C2.22707 11.419 2.11784 11.171 2.23713 11.001Z" fill="#E8FAFF"/>
<path d="M1.37339 14.4073H0.727539V12.6953H1.37339C1.67622 12.6953 1.92168 12.9408 1.92168 13.2436V13.859C1.92168 14.1619 1.67622 14.4073 1.37339 14.4073Z" fill="#FFBB00"/>
<path d="M6.67822 18.2932C6.67822 19.3785 5.79844 20.2583 4.71313 20.2583C3.62783 20.2583 2.74805 19.3785 2.74805 18.2932C2.74805 17.2079 3.62783 16.3281 4.71313 16.3281C5.79844 16.3281 6.67822 17.208 6.67822 18.2932ZM14.1448 16.3282C13.0595 16.3282 12.1797 17.208 12.1797 18.2933C12.1797 19.3786 13.0595 20.2583 14.1448 20.2583C15.2301 20.2583 16.1099 19.3786 16.1099 18.2933C16.1099 17.208 15.2301 16.3282 14.1448 16.3282ZM19.6307 16.3282C18.5454 16.3282 17.6656 17.208 17.6656 18.2933C17.6656 19.3786 18.5454 20.2583 19.6307 20.2583C20.716 20.2583 21.5958 19.3786 21.5958 18.2933C21.5958 17.208 20.716 16.3282 19.6307 16.3282Z" fill="#091F2F"/>
<path d="M6.00176 18.2938C6.00176 19.0052 5.4251 19.5818 4.71377 19.5818C4.00244 19.5818 3.42578 19.0052 3.42578 18.2938C3.42578 17.5825 4.00244 17.0059 4.71377 17.0059C5.4251 17.0059 6.00176 17.5825 6.00176 18.2938ZM14.1455 17.0059C13.4341 17.0059 12.8575 17.5826 12.8575 18.2939C12.8575 19.0052 13.4341 19.5819 14.1455 19.5819C14.8568 19.5819 15.4334 19.0052 15.4334 18.2939C15.4334 17.5826 14.8568 17.0059 14.1455 17.0059ZM19.6313 17.0059C18.92 17.0059 18.3433 17.5826 18.3433 18.2939C18.3433 19.0052 18.92 19.5819 19.6313 19.5819C20.3426 19.5819 20.9193 19.0052 20.9193 18.2939C20.9193 17.5826 20.3426 17.0059 19.6313 17.0059Z" fill="#9FABB5"/>
<path fill-rule="evenodd" clip-rule="evenodd" d="M12.1133 6.95312C12.1133 6.73739 11.9384 6.5625 11.7227 6.5625C11.5069 6.5625 11.332 6.73739 11.332 6.95312V13.9844C11.332 14.2001 11.5069 14.375 11.7227 14.375C11.9384 14.375 12.1133 14.2001 12.1133 13.9844V6.95312ZM15.6289 6.95312C15.6289 6.73739 15.454 6.5625 15.2383 6.5625C15.0225 6.5625 14.8477 6.73739 14.8477 6.95312V13.9844C14.8477 14.2001 15.0225 14.375 15.2383 14.375C15.454 14.375 15.6289 14.2001 15.6289 13.9844V6.95312ZM18.7539 6.5625C18.9696 6.5625 19.1445 6.73739 19.1445 6.95312V13.9844C19.1445 14.2001 18.9696 14.375 18.7539 14.375C18.5382 14.375 18.3633 14.2001 18.3633 13.9844V6.95312C18.3633 6.73739 18.5382 6.5625 18.7539 6.5625ZM22.6602 6.95312C22.6602 6.73739 22.4853 6.5625 22.2695 6.5625C22.0538 6.5625 21.8789 6.73739 21.8789 6.95312V13.9844C21.8789 14.2001 22.0538 14.375 22.2695 14.375C22.4853 14.375 22.6602 14.2001 22.6602 13.9844V6.95312Z" fill="#8BC33D"/>
</g>
<defs>
<linearGradient id="paint0_linear_1248_5770" x1="1.9574" y1="15.9374" x2="13.6761" y2="9.68738" gradientUnits="userSpaceOnUse">
<stop offset="0.140646" stop-color="#6E3667"/>
<stop offset="1" stop-color="#8B25C6"/>
</linearGradient>
<clipPath id="clip0_1248_5770">
<rect width="25" height="25" fill="white" transform="translate(0 0.5)"/>
</clipPath>
</defs>
</svg>
